<svg width="35" height="33" fill="none" xmlns="http://www.w3.org/2000/svg"><path d="M31.646 25.624h-13.67a5.03 5.03 0 01-3.11-1.08 4.86 4.86 0 01-1.736-2.753 9.19 9.19 0 00-.107 1.378c0 2.44.99 4.782 2.75 6.508a9.48 9.48 0 006.636 2.695h9.237a3.476 3.476 0 002.377-1.018c.627-.631.977-1.476.977-2.357 0-.88-.35-1.726-.977-2.356a3.476 3.476 0 00-2.377-1.02v.003z" fill="url(#paint0_linear)"/><path d="M15.109 5.89l6.786 12.07c.56 1.001.772 2.169.598 3.31a5.106 5.106 0 01-1.554 2.963 9.114 9.114 0 001.263-.622 9.398 9.398 0 002.733-2.462 9.672 9.672 0 001.608-3.349 9.818 9.818 0 00.238-3.726 9.742 9.742 0 00-1.17-3.535v-.023l-4.584-8.134a3.481 3.481 0 00-.879-1.029 3.339 3.339 0 00-3.788-.255c-.389.23-.73.537-1.002.902a3.591 3.591 0 00-.249 3.89z" fill="url(#paint1_linear)"/><path d="M6.58 29.832l7.002-11.86a5.062 5.062 0 012.569-2.158 5.195 5.195 0 013.384-.104 10.07 10.07 0 00-1.193-.798 9.801 9.801 0 00-7.298-.94 9.595 9.595 0 00-5.84 4.386l-.013.023-4.719 8a3.387 3.387 0 00-.352 2.62 3.462 3.462 0 001.643 2.095c.81.458 1.772.581 2.676.345a3.517 3.517 0 002.14-1.609z" fill="url(#paint2_linear)"/><defs><linearGradient id="paint0_linear" x1="34.986" y1="27.083" x2="13.401" y2="27.083" gradientUnits="userSpaceOnUse"><stop stop-color="#FF9662"/><stop offset=".24" stop-color="#FF8D61"/><stop offset=".64" stop-color="#FF755D"/><stop offset="1" stop-color="#FF5A58"/></linearGradient><linearGradient id="paint1_linear" x1="1389.75" y1="-4060.68" x2="1992.48" y2="-3043.95" gradientUnits="userSpaceOnUse"><stop stop-color="#FF9662"/><stop offset=".24" stop-color="#FF8D61"/><stop offset=".64" stop-color="#FF755D"/><stop offset="1" stop-color="#FF5A58"/></linearGradient><linearGradient id="paint2_linear" x1="-5335.85" y1="3286.8" x2="-4438.18" y2="1698.33" gradientUnits="userSpaceOnUse"><stop stop-color="#FF9662"/><stop offset=".24" stop-color="#FF8D61"/><stop offset=".64" stop-color="#FF755D"/><stop offset="1" stop-color="#FF5A58"/></linearGradient></defs></svg>